<svg width="400" height="400" viewBox="0 0 400 400" fill="none" xmlns="http://www.w3.org/2000/svg">
  <defs>
    <linearGradient id="social-bg" x1="130" y1="40" x2="270" y2="180" gradientUnits="userSpaceOnUse">
      <stop offset="0%" stop-color="#4ade80"/>
      <stop offset="50%" stop-color="#22c55e"/>
      <stop offset="100%" stop-color="#16a34a"/>
    </linearGradient>
    <radialGradient id="social-highlight" cx="0" cy="0" r="1" gradientTransform="translate(175 85) scale(40)">
      <stop stop-color="white" stop-opacity="0.7"/>
      <stop offset="1" stop-color="white" stop-opacity="0"/>
    </radialGradient>
  </defs>
  <rect width="400" height="400" fill="#0f172a"/>
  <rect x="130" y="40" width="140" height="140" rx="32" fill="url(#social-bg)"/>
  <ellipse cx="175" cy="85" rx="40" ry="40" fill="url(#social-highlight)" opacity="0.4"/>
  <path d="M238 78L238 118L200 160L162 118L162 78L180 78L180 70C180 66 183 63 188 63L212 63C217 63 220 66 220 70L220 78L238 78Z" fill="white" fill-opacity="0.08" stroke="white" stroke-width="1.5" stroke-opacity="0.3"/>
  <circle cx="172" cy="92" r="6" fill="none" stroke="white" stroke-width="1.5" stroke-opacity="0.4"/>
  <circle cx="172" cy="92" r="2" fill="white" fill-opacity="0.3"/>
  <path d="M206 68L180 108H195L189 130L186 155L220 108H200L208 82L206 68Z" fill="white"/>
  <line x1="148" y1="102" x2="160" y2="102" stroke="white" stroke-width="2.5" stroke-linecap="round" opacity="0.6"/>
  <line x1="144" y1="112" x2="158" y2="112" stroke="white" stroke-width="2.5" stroke-linecap="round" opacity="0.45"/>
  <line x1="148" y1="122" x2="156" y2="122" stroke="white" stroke-width="2.5" stroke-linecap="round" opacity="0.3"/>
  <path d="M252 58L254 63L259 63L255 66L257 71L252 68L247 71L249 66L245 63L250 63Z" fill="#facc15"/>
  <circle cx="258" cy="52" r="5" fill="#facc15"/>
  <text x="200" y="230" font-family="system-ui, -apple-system, 'Segoe UI', Roboto, sans-serif" font-size="44" font-weight="700" fill="white" text-anchor="middle">Magnus</text>
  <text x="200" y="280" font-family="system-ui, -apple-system, 'Segoe UI', Roboto, sans-serif" font-size="44" font-weight="600" fill="#4ade80" text-anchor="middle">Flipper</text>
  <rect x="160" y="305" width="80" height="36" rx="8" fill="#facc15"/>
  <text x="200" y="330" font-family="system-ui, -apple-system, 'Segoe UI', Roboto, sans-serif" font-size="20" font-weight="800" fill="#0f172a" text-anchor="middle">AI</text>
</svg>