<svg width="240" height="320" viewBox="0 0 240 320" fill="none" xmlns="http://www.w3.org/2000/svg">
  <defs>
    <linearGradient id="stacked-bg" x1="50" y1="20" x2="190" y2="160" gradientUnits="userSpaceOnUse">
      <stop offset="0%" stop-color="#4ade80"/>
      <stop offset="50%" stop-color="#22c55e"/>
      <stop offset="100%" stop-color="#16a34a"/>
    </linearGradient>
    <radialGradient id="stacked-highlight" cx="0" cy="0" r="1" gradientTransform="translate(95 65) scale(40)">
      <stop stop-color="white" stop-opacity="0.7"/>
      <stop offset="1" stop-color="white" stop-opacity="0"/>
    </radialGradient>
  </defs>
  <rect x="50" y="20" width="140" height="140" rx="32" fill="url(#stacked-bg)"/>
  <ellipse cx="95" cy="65" rx="40" ry="40" fill="url(#stacked-highlight)" opacity="0.4"/>
  <path d="M158 58L158 98L120 140L82 98L82 58L100 58L100 50C100 46 103 43 108 43L132 43C137 43 140 46 140 50L140 58L158 58Z" fill="white" fill-opacity="0.08" stroke="white" stroke-width="1.5" stroke-opacity="0.3"/>
  <circle cx="92" cy="72" r="6" fill="none" stroke="white" stroke-width="1.5" stroke-opacity="0.4"/>
  <circle cx="92" cy="72" r="2" fill="white" fill-opacity="0.3"/>
  <path d="M126 48L100 88H115L109 110L106 135L140 88H120L128 62L126 48Z" fill="white"/>
  <path d="M124 55L104 88H114L109 105L107 125L133 88H118L124 65V55Z" fill="url(#stacked-bg)" opacity="0.12"/>
  <line x1="68" y1="82" x2="80" y2="82" stroke="white" stroke-width="2.5" stroke-linecap="round" opacity="0.6"/>
  <line x1="64" y1="92" x2="78" y2="92" stroke="white" stroke-width="2.5" stroke-linecap="round" opacity="0.45"/>
  <line x1="68" y1="102" x2="76" y2="102" stroke="white" stroke-width="2.5" stroke-linecap="round" opacity="0.3"/>
  <path d="M172 38L174 43L179 43L175 46L177 51L172 48L167 51L169 46L165 43L170 43Z" fill="#facc15"/>
  <circle cx="178" cy="32" r="5" fill="#facc15"/>
  <text x="120" y="205" font-family="system-ui, -apple-system, 'Segoe UI', Roboto, sans-serif" font-size="38" font-weight="700" fill="white" text-anchor="middle" letter-spacing="-0.02em">Magnus</text>
  <text x="120" y="248" font-family="system-ui, -apple-system, 'Segoe UI', Roboto, sans-serif" font-size="38" font-weight="600" fill="#4ade80" text-anchor="middle" letter-spacing="-0.02em">Flipper</text>
  <rect x="90" y="268" width="60" height="28" rx="6" fill="#facc15"/>
  <text x="120" y="288" font-family="system-ui, -apple-system, 'Segoe UI', Roboto, sans-serif" font-size="16" font-weight="800" fill="#0f172a" text-anchor="middle">AI</text>
</svg>